<svg width="20" height="20" viewBox="0 0 20 20" fill="none" xmlns="http://www.w3.org/2000/svg">
<path d="M5.21726 17.8237H5.00065C4.21498 17.8237 3.82214 17.8237 3.57806 17.5796C3.33398 17.3355 3.33398 16.9427 3.33398 16.157V15.2304C3.33398 14.7983 3.33398 14.5822 3.44497 14.3893C3.55595 14.1964 3.72338 14.099 4.05824 13.9042C6.26279 12.622 9.39361 11.9003 11.4832 13.1466C11.6236 13.2303 11.7499 13.3314 11.8578 13.4526C12.3229 13.975 12.2889 14.7634 11.7529 15.2312C11.6398 15.33 11.5191 15.405 11.3976 15.431C11.4975 15.4194 11.5932 15.4062 11.6845 15.3916C12.444 15.2705 13.0815 14.8646 13.6652 14.4237L15.1712 13.286C15.7021 12.885 16.4901 12.8849 17.0211 13.2859C17.4991 13.6468 17.6453 14.2412 17.3431 14.7256C16.9906 15.2906 16.4941 16.0133 16.0173 16.4549C15.5398 16.8972 14.8289 17.292 14.2485 17.5721C13.6057 17.8824 12.8955 18.0612 12.1731 18.1781C10.708 18.4153 9.18112 18.3791 7.73092 18.0803C6.91109 17.9114 6.05965 17.8237 5.21726 17.8237Z" fill="white"/>
<path d="M5.48815 2.1549C5.18251 2.46055 5.06824 2.88283 5.02551 3.54158C6.0408 3.52804 6.86129 2.70754 6.87483 1.69226C6.21609 1.73498 5.7938 1.84926 5.48815 2.1549Z" fill="white"/>
<path d="M14.5118 2.1549C14.2062 1.84926 13.7839 1.73498 13.1252 1.69226C13.1387 2.70754 13.9592 3.52804 14.9745 3.54158C14.9318 2.88283 14.8175 2.46055 14.5118 2.1549Z" fill="white"/>
<path d="M14.5118 7.84526C14.2062 8.15091 13.7839 8.26518 13.1252 8.3079C13.1387 7.29262 13.9592 6.47212 14.9745 6.45858C14.9318 7.11733 14.8175 7.53961 14.5118 7.84526Z" fill="white"/>
<path d="M5.48816 7.84526C5.7938 8.15091 6.21609 8.26518 6.87483 8.3079C6.86129 7.29262 6.0408 6.47212 5.02551 6.45858C5.06824 7.11733 5.18251 7.53961 5.48816 7.84526Z" fill="white"/>
<path fill-rule="evenodd" clip-rule="evenodd" d="M5 4.79175C6.72589 4.79175 8.125 3.39264 8.125 1.66675H11.875C11.875 3.39264 13.2741 4.79175 15 4.79175V5.20841C13.2741 5.20841 11.875 6.60752 11.875 8.33341H8.125C8.125 6.60752 6.72589 5.20841 5 5.20841V4.79175ZM10 5.83341C10.4602 5.83341 10.8333 5.46032 10.8333 5.00008C10.8333 4.53984 10.4602 4.16675 10 4.16675C9.53976 4.16675 9.16667 4.53984 9.16667 5.00008C9.16667 5.46032 9.53976 5.83341 10 5.83341Z" fill="white"/>
</svg>
