<svg width="20" height="20" viewBox="0 0 20 20" fill="none" xmlns="http://www.w3.org/2000/svg">
<path fill-rule="evenodd" clip-rule="evenodd" d="M9.99935 18.3334C14.6017 18.3334 18.3327 14.6025 18.3327 10.0001C18.3327 5.39771 14.6017 1.66675 9.99935 1.66675C5.39698 1.66675 1.66602 5.39771 1.66602 10.0001C1.66602 14.6025 5.39698 18.3334 9.99935 18.3334ZM5.62435 10.0001C5.62435 9.78788 5.63946 9.57921 5.66865 9.37508H8.33268C8.67786 9.37508 8.95768 9.09526 8.95768 8.75008C8.95768 8.4049 8.67786 8.12508 8.33268 8.12508H6.04537C6.74753 6.64699 8.2541 5.62508 9.99935 5.62508C10.7973 5.62508 11.5435 5.83812 12.1864 6.21C12.4852 6.38284 12.8675 6.28073 13.0404 5.98195C13.2132 5.68316 13.1111 5.30083 12.8123 5.12799C11.9843 4.64902 11.0229 4.37508 9.99935 4.37508C7.55019 4.37508 5.46662 5.94035 4.69442 8.12508H4.16602C3.82084 8.12508 3.54102 8.4049 3.54102 8.75008C3.54102 9.09526 3.82084 9.37508 4.16602 9.37508H4.40868C4.38599 9.58029 4.37435 9.78883 4.37435 10.0001C4.37435 10.2113 4.38599 10.4199 4.40868 10.6251H4.16602C3.82084 10.6251 3.54102 10.9049 3.54102 11.2501C3.54102 11.5953 3.82084 11.8751 4.16602 11.8751H4.69442C5.46662 14.0598 7.55019 15.6251 9.99935 15.6251C11.0229 15.6251 11.9843 15.3511 12.8123 14.8722C13.1111 14.6993 13.2132 14.317 13.0404 14.0182C12.8675 13.7194 12.4852 13.6173 12.1864 13.7902C11.5435 14.162 10.7973 14.3751 9.99935 14.3751C8.2541 14.3751 6.74753 13.3532 6.04537 11.8751H8.33268C8.67786 11.8751 8.95768 11.5953 8.95768 11.2501C8.95768 10.9049 8.67786 10.6251 8.33268 10.6251H5.66865C5.63946 10.421 5.62435 10.2123 5.62435 10.0001Z" fill="white"/>
</svg>
