<svg width="20" height="20" viewBox="0 0 20 20" fill="none" xmlns="http://www.w3.org/2000/svg">
<path fill-rule="evenodd" clip-rule="evenodd" d="M10.0427 1.04175H9.95602C9.2073 1.04173 8.58293 1.04171 8.08728 1.10834C7.56412 1.17868 7.09179 1.33341 6.71223 1.71296C6.33267 2.09252 6.17795 2.56486 6.10761 3.08802C6.04097 3.58367 6.04099 4.20801 6.04102 4.95674V5.02151C4.3567 5.07662 3.34528 5.27344 2.64233 5.97639C1.66602 6.9527 1.66602 8.52405 1.66602 11.6667C1.66602 14.8094 1.66602 16.3808 2.64233 17.3571C3.61864 18.3334 5.18999 18.3334 8.33268 18.3334H11.666C14.8087 18.3334 16.3801 18.3334 17.3564 17.3571C18.3327 16.3808 18.3327 14.8094 18.3327 11.6667C18.3327 8.52405 18.3327 6.9527 17.3564 5.97639C16.6534 5.27344 15.642 5.07662 13.9577 5.02151V4.95676C13.9577 4.20803 13.9577 3.58366 13.8911 3.08802C13.8208 2.56486 13.666 2.09252 13.2865 1.71296C12.9069 1.33341 12.4346 1.17868 11.9114 1.10834C11.4158 1.04171 10.7914 1.04173 10.0427 1.04175ZM12.7077 5.00165V5.00008C12.7077 4.19674 12.7064 3.65711 12.6522 3.25458C12.6005 2.87003 12.5112 2.70545 12.4026 2.59685C12.294 2.48825 12.1294 2.3989 11.7449 2.3472C11.3423 2.29308 10.8027 2.29175 9.99935 2.29175C9.19601 2.29175 8.65637 2.29308 8.25384 2.3472C7.86929 2.3989 7.70471 2.48825 7.59611 2.59685C7.48752 2.70545 7.39817 2.87003 7.34646 3.25458C7.29234 3.65711 7.29102 4.19674 7.29102 5.00008V5.00165C7.61771 5.00008 7.96441 5.00008 8.33268 5.00008H11.666C12.0343 5.00008 12.381 5.00008 12.7077 5.00165ZM14.166 7.50008C14.166 7.96032 13.7929 8.33342 13.3327 8.33342C12.8724 8.33342 12.4993 7.96032 12.4993 7.50008C12.4993 7.03984 12.8724 6.66675 13.3327 6.66675C13.7929 6.66675 14.166 7.03984 14.166 7.50008ZM6.66602 8.33342C7.12625 8.33342 7.49935 7.96032 7.49935 7.50008C7.49935 7.03984 7.12625 6.66675 6.66602 6.66675C6.20578 6.66675 5.83268 7.03984 5.83268 7.50008C5.83268 7.96032 6.20578 8.33342 6.66602 8.33342Z" fill="white"/>
</svg>
