<svg width="20" height="20" viewBox="0 0 20 20" fill="none" xmlns="http://www.w3.org/2000/svg">
<path d="M3.14867 3.04578C2.9978 3.34653 2.9236 3.71752 2.7752 4.45952L2.27693 6.95086C1.96144 8.52833 3.16799 10.0001 4.7767 10.0001C6.08639 10.0001 7.183 9.00766 7.31332 7.70447L7.37083 7.12937C7.23492 8.66992 8.44918 10.0001 10.0002 10.0001C11.5619 10.0001 12.7821 8.65175 12.6267 7.09789L12.6875 7.70447C12.8178 9.00766 13.9144 10.0001 15.2241 10.0001C16.8328 10.0001 18.0394 8.52833 17.7239 6.95086L17.2256 4.45952C17.0772 3.71754 17.003 3.34652 16.8522 3.04578C16.5343 2.41208 15.9623 1.94314 15.2785 1.7557C14.954 1.66675 14.5757 1.66675 13.819 1.66675H12.0836H6.18183C5.42514 1.66675 5.0468 1.66675 4.72231 1.7557C4.03856 1.94314 3.46656 2.41208 3.14867 3.04578Z" fill="white"/>
<path d="M15.2231 11.2501C15.9041 11.2501 16.5367 11.0731 17.0827 10.7659V11.6668C17.0827 14.8095 17.0827 16.3808 16.1064 17.3571C15.3205 18.143 14.149 18.2963 12.0827 18.3262V15.4168C12.0827 14.6379 12.0827 14.2485 11.9152 13.9585C11.8055 13.7684 11.6477 13.6106 11.4577 13.5009C11.1676 13.3335 10.7782 13.3335 9.99935 13.3335C9.2205 13.3335 8.83108 13.3335 8.54102 13.5009C8.35099 13.6106 8.19319 13.7684 8.08348 13.9585C7.91602 14.2485 7.91602 14.6379 7.91602 15.4168V18.3262C5.84971 18.2963 4.67823 18.143 3.89233 17.3571C2.91602 16.3808 2.91602 14.8095 2.91602 11.6668V10.7659C3.46205 11.0731 4.09468 11.2501 4.77566 11.2501C5.77322 11.2501 6.68782 10.8638 7.36964 10.2267C8.05908 10.8602 8.97975 11.2501 9.9992 11.2501C11.0187 11.2501 11.9394 10.8601 12.6289 10.2266C13.3108 10.8637 14.2254 11.2501 15.2231 11.2501Z" fill="white"/>
</svg>
