<svg width="20" height="20" viewBox="0 0 20 20" fill="none" xmlns="http://www.w3.org/2000/svg">
<path fill-rule="evenodd" clip-rule="evenodd" d="M1.66602 13.4531V4.16492C1.66602 3.24977 2.4046 2.50635 3.31802 2.56249C4.13166 2.6125 5.09392 2.71134 5.83268 2.90628C6.70702 3.13701 7.74611 3.62842 8.56789 4.06296C8.82381 4.19829 9.09597 4.29215 9.3745 4.34506V16.9939C9.12199 16.9383 8.87565 16.8485 8.64303 16.7245C7.81013 16.2805 6.73389 15.7657 5.83268 15.5279C5.10209 15.3351 4.15292 15.2363 3.34506 15.1858C2.42105 15.128 1.66602 14.3789 1.66602 13.4531ZM4.31775 6.89374C3.98288 6.81002 3.64354 7.01362 3.55982 7.3485C3.47611 7.68337 3.67971 8.0227 4.01458 8.10642L7.34791 8.93975C7.68278 9.02347 8.02212 8.81987 8.10584 8.485C8.18955 8.15013 7.98595 7.81079 7.65108 7.72708L4.31775 6.89374ZM4.31775 10.2271C3.98288 10.1434 3.64354 10.347 3.55982 10.6818C3.47611 11.0167 3.67971 11.356 4.01458 11.4398L7.34791 12.2731C7.68278 12.3568 8.02212 12.1532 8.10584 11.8183C8.18955 11.4835 7.98595 11.1441 7.65108 11.0604L4.31775 10.2271Z" fill="white"/>
<path fill-rule="evenodd" clip-rule="evenodd" d="M10.6245 16.9939C10.8769 16.9382 11.1231 16.8484 11.3557 16.7245C12.1886 16.2805 13.2648 15.7657 14.166 15.5279C14.8966 15.3351 15.8458 15.2363 16.6536 15.1858C17.5776 15.128 18.3327 14.3789 18.3327 13.4531V4.11108C18.3327 3.21737 17.6275 2.48376 16.7343 2.51487C15.7938 2.54763 14.6218 2.6451 13.7493 2.90628C12.993 3.13272 12.1121 3.5869 11.3942 4.00238C11.1514 4.14293 10.8918 4.24617 10.6245 4.31164V16.9939ZM15.9844 8.10642C16.3193 8.0227 16.5229 7.68337 16.4392 7.3485C16.3555 7.01362 16.0161 6.81002 15.6812 6.89374L12.3479 7.72708C12.013 7.81079 11.8094 8.15013 11.8932 8.485C11.9769 8.81987 12.3162 9.02347 12.6511 8.93975L15.9844 8.10642ZM15.9844 11.4398C16.3193 11.356 16.5229 11.0167 16.4392 10.6818C16.3555 10.347 16.0161 10.1434 15.6812 10.2271L12.3479 11.0604C12.013 11.1441 11.8094 11.4835 11.8932 11.8183C11.9769 12.1532 12.3162 12.3568 12.6511 12.2731L15.9844 11.4398Z" fill="white"/>
</svg>
